<svg height="1250" viewBox="0 -2.63 447.8 223.584" width="2500" xmlns="http://www.w3.org/2000/svg"><path d="m240.255 1.38c-1.448.287-2.896 5.436-5.786 8.3-2.028 2.006-4.634 2.006-6.076 4.297-.579.86-.29 2.578-.869 4.01-1.158 3.152-5.214 3.438-5.214 6.582 0 3.438 3.476 4.297 6.366 6.868 2.317 2.006 2.607 3.438 5.214 4.297 2.317.86 5.786-1.719 8.972-.86 2.607.86 5.214 1.433 5.786 4.011.573 2.578 0 6.295-3.186 5.722-1.159 0-5.786-1.718-11.29-1.145-6.944.859-14.765 2.864-15.345 10.592-.29 4.296 4.925 9.16 9.842 8.3 3.476-.573 1.738-4.87 3.765-6.868 2.607-2.578 16.787 8.873 30.104 8.873 5.496 0 9.841-1.432 13.896-5.722.29-.287.87-1.146 1.449-1.146s1.448.573 1.738.86c10.71 8.586 18.813 25.48 57.896 25.767 5.497 0 11.87 2.578 17.076 7.154 4.635 4.297 7.235 10.879 9.842 17.46 4.055 10.02 11 19.752 21.71 30.344.58.573 9.262 7.44 10.13 7.727 0 0 .87 1.719.58 2.578-.29 6.582-1.158 25.195 13.028 26.054 3.476.287 2.607-2.291 2.607-4.01 0-3.151-.58-6.582 1.158-9.733 2.318-4.583-4.924-6.581-4.924-16.6.29-7.441-6.076-6.296-9.262-11.738-1.738-3.151-3.476-5.157-3.476-9.16.58-22.616-4.924-37.498-7.524-40.936-2.027-2.864-4.055-3.724-2.027-5.156 11.869-7.727 14.475-14.889 14.475-14.889 6.366-14.602 11.87-28.052 19.683-33.78 1.449-1.147 5.497-4.298 8.104-5.437 7.234-3.437 11-5.435 13.027-7.44 3.187-3.152 6.076-10.02 2.897-14.03-4.055-5.156-10.71-1.146-13.897.86-21.71 12.883-24.896 35.213-32.42 48.09-6.076 10.305-15.635 18.032-24.318 18.605-6.655.573-13.607-.86-20.551-4.01-17.076-7.441-26.345-16.887-28.656-18.606-4.634-3.437-39.944-38.071-68.896-39.503 0 0-3.476-7.155-4.345-7.155-2.028-.286-4.345 4.297-5.786 4.87-1.738.86-4.056-4.583-5.497-4.297zm-126.495 206.118c-2.687-.077-4.847-2.213-4.925-4.87v-89.033h-29.814v98.192c0 4.87 4.055 8.874 8.682 8.874h51.525c4.924 0 8.682-4.01 8.682-8.874v-98.192h-29.234v89.033c-.078 2.657-2.238 4.793-4.924 4.87zm99-93.896h-44.87c-5.213 0-9.551 4.297-9.551 9.446v97.333h29.524v-89.033c0-2.864 2.317-4.87 4.924-4.87 2.897 0 4.925 2.006 4.925 4.87v89.32h29.524v-89.606c0-2.578 2.317-4.87 4.924-4.87s4.924 2.292 4.924 4.87v89.32h29.524v-97.334c0-5.436-4.345-9.446-9.552-9.446h-44.29zm-153.422 79.866h-29.814v26.906h-29.524v-106.779h59.628c5.213 0 9.551 4.297 9.551 9.733v60.687c0 5.436-4.345 9.446-9.841 9.446zm-19.683-62.12c0-2.864-2.317-5.156-4.924-5.156h-4.924v54.106h4.924c2.607 0 4.924-2.005 4.924-5.156v-43.8zm274.296 89.606v-26.807h-10.17v26.807h-29.634v-96.974c0-5.416 4.361-9.411 9.587-9.411h49.974c5.233 0 9.587 4.28 9.587 9.411v96.974zm0-39.935v-48.77c0-2.568-2.326-4.851-4.943-4.851s-4.943 2.283-4.943 4.852v49.054l9.879-.285z"/><circle cx="370.18" cy="205.16" fill="none" r="13.38" stroke="#000" stroke-width="2.23"/><path d="m375.479 211.85-2.837-5.477c1.23-.446 2.32-1.552 2.32-3.336 0-2.123-1.535-3.89-4.122-3.89h-4.977v12.703h2.48v-5.067h1.784l2.48 5.067zm-2.998-8.813c0 .981-.713 1.677-1.801 1.677h-2.337v-3.354h2.337c1.088 0 1.801.696 1.801 1.677z"/></svg>